<svg xmlns="http://www.w3.org/2000/svg" width="680" height="920" viewBox="0 0 680 920" style="background:#F4F2EC;font-family:Arial,sans-serif">

<!-- ── FRONTEND ─────────────────────────────────────── -->
<rect x="20" y="20" width="640" height="175" rx="14" fill="#EEEDFE" stroke="#7F77DD" stroke-width="0.5"/>
<text x="36" y="46" font-size="14" font-weight="500" fill="#3C3489">Frontend</text>
<text x="36" y="62" font-size="12" fill="#534AB7">React + Vite · port 5173</text>

<rect x="36" y="74" width="108" height="36" rx="6" fill="#EEEDFE" stroke="#7F77DD" stroke-width="0.5"/>
<text x="90" y="97" font-size="11" text-anchor="middle" fill="#3C3489">HomeScreen</text>

<rect x="154" y="74" width="108" height="36" rx="6" fill="#EEEDFE" stroke="#7F77DD" stroke-width="0.5"/>
<text x="208" y="97" font-size="11" text-anchor="middle" fill="#3C3489">GalleryScreen</text>

<rect x="272" y="74" width="120" height="36" rx="6" fill="#EEEDFE" stroke="#7F77DD" stroke-width="0.5"/>
<text x="332" y="90" font-size="11" text-anchor="middle" fill="#3C3489">PaintingDetail</text>
<text x="332" y="104" font-size="11" text-anchor="middle" fill="#3C3489">+ JournalEntry</text>

<rect x="402" y="74" width="108" height="36" rx="6" fill="#EEEDFE" stroke="#7F77DD" stroke-width="0.5"/>
<text x="456" y="97" font-size="11" text-anchor="middle" fill="#3C3489">UploadScreen</text>

<rect x="520" y="74" width="120" height="36" rx="6" fill="#EEEDFE" stroke="#7F77DD" stroke-width="0.5"/>
<text x="580" y="90" font-size="11" text-anchor="middle" fill="#3C3489">Blog · Profile</text>
<text x="580" y="104" font-size="11" text-anchor="middle" fill="#3C3489">Onboarding</text>

<rect x="36" y="120" width="150" height="32" rx="6" fill="#FBEAF0" stroke="#D4537E" stroke-width="0.5"/>
<text x="111" y="140" font-size="11" text-anchor="middle" fill="#72243E">SessionRecorder ✦ new</text>

<rect x="196" y="120" width="150" height="32" rx="6" fill="#FBEAF0" stroke="#D4537E" stroke-width="0.5"/>
<text x="271" y="140" font-size="11" text-anchor="middle" fill="#72243E">PastSessionCard ✦ new</text>

<text x="36" y="172" font-size="11" fill="#534AB7">supabase.js — all DB queries · fetch(SERVER/api/...) — all server calls</text>

<!-- ── ARROW: Frontend → Server ───────────────────── -->
<line x1="340" y1="195" x2="340" y2="245" stroke="#888780" stroke-width="1" marker-end="url(#arr)"/>
<text x="352" y="224" font-size="11" fill="#888780">POST /api/evaluate · POST /api/sessions/media</text>

<!-- ── SERVER ──────────────────────────────────────── -->
<rect x="20" y="247" width="640" height="198" rx="14" fill="#E1F5EE" stroke="#1D9E75" stroke-width="0.5"/>
<text x="36" y="273" font-size="14" font-weight="500" fill="#085041">Express server</text>
<text x="36" y="289" font-size="12" fill="#0F6E56">server.js · port 3001</text>

<rect x="36" y="300" width="185" height="48" rx="6" fill="#E1F5EE" stroke="#1D9E75" stroke-width="0.5"/>
<text x="128" y="320" font-size="11" text-anchor="middle" fill="#085041">/api/evaluate</text>
<text x="128" y="337" font-size="11" text-anchor="middle" fill="#0F6E56">6 call types → streaming SSE</text>

<rect x="231" y="300" width="165" height="48" rx="6" fill="#E1F5EE" stroke="#1D9E75" stroke-width="0.5"/>
<text x="313" y="320" font-size="11" text-anchor="middle" fill="#085041">/api/add-painting-image</text>
<text x="313" y="337" font-size="11" text-anchor="middle" fill="#0F6E56">/api/upload-photo</text>

<rect x="406" y="300" width="238" height="48" rx="6" fill="#FBEAF0" stroke="#D4537E" stroke-width="0.5"/>
<text x="525" y="320" font-size="11" text-anchor="middle" fill="#72243E">/api/sessions/media ✦ new</text>
<text x="525" y="337" font-size="11" text-anchor="middle" fill="#993556">ffmpeg · Whisper · frames</text>

<text x="36" y="374" font-size="11" fill="#0F6E56">Call types: evaluate_painting · companion_dialogue · generate_blog · morning_message</text>

<rect x="36" y="384" width="290" height="24" rx="5" fill="#FBEAF0" stroke="#D4537E" stroke-width="0.5"/>
<text x="181" y="400" font-size="11" text-anchor="middle" fill="#72243E">analyse_session · session_dialogue ✦ new</text>

<text x="36" y="432" font-size="11" fill="#0F6E56">loadMediaConfig() — reads media_config table · refreshes every 5 min</text>

<!-- ── ARROWS: Server → APIs ───────────────────────── -->
<line x1="160" y1="445" x2="100" y2="495" stroke="#888780" stroke-width="1" marker-end="url(#arr)"/>
<line x1="340" y1="445" x2="340" y2="495" stroke="#888780" stroke-width="1" marker-end="url(#arr)"/>
<line x1="520" y1="445" x2="580" y2="495" stroke="#888780" stroke-width="1" marker-end="url(#arr)"/>

<!-- ── EXTERNAL APIs ───────────────────────────────── -->
<rect x="20" y="497" width="194" height="90" rx="10" fill="#FAEEDA" stroke="#EF9F27" stroke-width="0.5"/>
<text x="117" y="518" font-size="13" font-weight="500" text-anchor="middle" fill="#633806">Anthropic Claude</text>
<text x="117" y="536" font-size="11" text-anchor="middle" fill="#854F0B">claude-sonnet-4-6</text>
<text x="117" y="552" font-size="11" text-anchor="middle" fill="#854F0B">Prompt caching enabled</text>
<text x="117" y="568" font-size="11" text-anchor="middle" fill="#854F0B">Image resize to 1024px</text>

<rect x="240" y="497" width="200" height="90" rx="10" fill="#E1F5EE" stroke="#1D9E75" stroke-width="0.5"/>
<text x="340" y="518" font-size="13" font-weight="500" text-anchor="middle" fill="#085041">Supabase</text>
<text x="340" y="536" font-size="11" text-anchor="middle" fill="#0F6E56">Postgres database</text>
<text x="340" y="552" font-size="11" text-anchor="middle" fill="#0F6E56">Storage bucket: paintings</text>
<text x="340" y="568" font-size="11" text-anchor="middle" fill="#0F6E56">Auth (planned)</text>

<rect x="466" y="497" width="194" height="90" rx="10" fill="#FBEAF0" stroke="#D4537E" stroke-width="0.5"/>
<text x="563" y="518" font-size="13" font-weight="500" text-anchor="middle" fill="#72243E">OpenAI Whisper ✦ new</text>
<text x="563" y="536" font-size="11" text-anchor="middle" fill="#993556">whisper-1 model</text>
<text x="563" y="552" font-size="11" text-anchor="middle" fill="#993556">Transcription only</text>
<text x="563" y="568" font-size="11" text-anchor="middle" fill="#993556">~$0.006 / min audio</text>

<!-- ── ARROW: Supabase down ───────────────────────── -->
<line x1="340" y1="587" x2="340" y2="630" stroke="#888780" stroke-width="1" marker-end="url(#arr)"/>

<!-- ── DATABASE ───────────────────────────────────── -->
<rect x="20" y="632" width="640" height="248" rx="14" fill="#E1F5EE" stroke="#1D9E75" stroke-width="0.5"/>
<text x="36" y="658" font-size="14" font-weight="500" fill="#085041">Supabase database tables</text>

<rect x="36" y="668" width="290" height="96" rx="8" fill="#E1F5EE" stroke="#1D9E75" stroke-width="0.5"/>
<text x="181" y="686" font-size="12" font-weight="500" text-anchor="middle" fill="#085041">Confirmed and seeded</text>
<text x="48" y="706" font-size="11" fill="#0F6E56">paintings · painting_sessions · painting_images</text>
<text x="48" y="722" font-size="11" fill="#0F6E56">companion_conversations · blog_posts · inspirations</text>
<text x="48" y="738" font-size="11" fill="#0F6E56">artist_profiles · media_config</text>
<text x="48" y="754" font-size="11" fill="#72243E">session_frames ✦ new · rolling_summary col ✦ new</text>

<rect x="336" y="668" width="308" height="96" rx="8" fill="#FAEEDA" stroke="#EF9F27" stroke-width="0.5"/>
<text x="490" y="686" font-size="12" font-weight="500" text-anchor="middle" fill="#633806">⚠ Unconfirmed — verify before use</text>
<text x="348" y="706" font-size="11" fill="#854F0B">evolution_metrics · artist_style_protocols</text>
<text x="348" y="722" font-size="11" fill="#854F0B">studio_states · painting_subjects</text>
<text x="348" y="738" font-size="11" fill="#854F0B">prompt_parameters</text>

<rect x="36" y="774" width="290" height="88" rx="8" fill="#E1F5EE" stroke="#1D9E75" stroke-width="0.5"/>
<text x="181" y="792" font-size="12" font-weight="500" text-anchor="middle" fill="#085041">Storage bucket: paintings</text>
<text x="48" y="812" font-size="11" fill="#0F6E56">paintings/{slug}/vN.jpg — full images</text>
<text x="48" y="828" font-size="11" fill="#0F6E56">paintings/{slug}/thumb.jpg — thumbnails</text>
<text x="48" y="844" font-size="11" fill="#72243E">sessions/{slug}/{id}/frame_N.webp ✦ new</text>
<text x="48" y="860" font-size="11" fill="#0F6E56">profiles/{userId}/photo.jpg</text>

<rect x="336" y="774" width="308" height="88" rx="8" fill="#F1EFE8" stroke="#888780" stroke-width="0.5"/>
<text x="490" y="792" font-size="12" font-weight="500" text-anchor="middle" fill="#444441">Local Mac (dev only)</text>
<text x="348" y="812" font-size="11" fill="#5F5E5A">painting-images/{slug}/*.jpg → upload-images</text>
<text x="348" y="828" font-size="11" fill="#5F5E5A">private/artmind_system_prompt.txt</text>
<text x="348" y="844" font-size="11" fill="#5F5E5A">private/artmind_style_protocol.txt</text>
<text x="348" y="860" font-size="11" fill="#5F5E5A">nixpacks.toml → Railway deployment</text>

<!-- ── LEGEND ─────────────────────────────────────── -->
<rect x="20" y="888" width="12" height="12" rx="2" fill="#EEEDFE" stroke="#7F77DD"/>
<text x="38" y="899" font-size="11" fill="#534AB7">Frontend</text>
<rect x="110" y="888" width="12" height="12" rx="2" fill="#E1F5EE" stroke="#1D9E75"/>
<text x="128" y="899" font-size="11" fill="#0F6E56">Server / DB</text>
<rect x="210" y="888" width="12" height="12" rx="2" fill="#FBEAF0" stroke="#D4537E"/>
<text x="228" y="899" font-size="11" fill="#993556">✦ New in this build</text>
<rect x="350" y="888" width="12" height="12" rx="2" fill="#FAEEDA" stroke="#EF9F27"/>
<text x="368" y="899" font-size="11" fill="#854F0B">⚠ Unconfirmed</text>
<rect x="460" y="888" width="12" height="12" rx="2" fill="#F1EFE8" stroke="#888780"/>
<text x="478" y="899" font-size="11" fill="#5F5E5A">Local only</text>

<!-- ── ARROW MARKER ───────────────────────────────── -->
<defs>
  <marker id="arr" viewBox="0 0 10 10" refX="8" refY="5" markerWidth="6" markerHeight="6" orient="auto-start-reverse">
    <path d="M2 1L8 5L2 9" fill="none" stroke="#888780" stroke-width="1.5" stroke-linecap="round" stroke-linejoin="round"/>
  </marker>
</defs>

</svg>
